<?xml version="1.0" standalone="no"?> <!DOCTYPE svg PUBLIC "-//W3C//DTD SVG 1.0//EN" "http://www.w3.org/TR/2001/REC-SVG-20010904/DTD/svg10.dtd" > <svg xmlns="http://www.w3.org/2000/svg" width="100%" height="100%">
<defs >
<font id="pfagoraslabprothinitalic" horiz-adv-x="399" ><font-face
    font-family="PF Agora Slab Pro"
    units-per-em="1000"
    panose-1="2 0 5 0 0 0 0 9 0 4"
    ascent="750"
    descent="-250"
    alphabetic="0" />
<missing-glyph horiz-adv-x="416" d="M0 684H416V0H0V684ZM368 658H48L209 364L368 658ZM392 38V648L225 342L392 38ZM368 26L209 319L48 26H368ZM24 40L191 342L24 645V40Z" />
<glyph unicode=" " glyph-name="space" horiz-adv-x="247" />
<glyph unicode="!" glyph-name="exclam" horiz-adv-x="180" d="M171 690L130 375L96 154H74L93 377L127 690H171ZM73 68Q87 68 96 58T105 34Q105 16 91 4T63 -9Q49 -9 40 1T30 26Q30 43 43 55T73 68Z" />
<glyph unicode="&quot;" glyph-name="quotedbl" horiz-adv-x="203" d="M175 506L185 682H228L198 506H175ZM73 506L84 682H128L95 506H73Z" />
<glyph unicode="#" glyph-name="numbersign" horiz-adv-x="482" d="M304 194H140L79 0H45L107 194H34L50 226H118L182 420H106L121 453H193L249 622H283L226 453H390L446 622H480L424 453H489L474 420H414L349 226H418L401 194H338L276 0H243L304 194ZM151 226H315L380
420H216L151 226Z" />
<glyph unicode="$" glyph-name="dollar" horiz-adv-x="516" d="M334 725H367L359 663Q370 663 384 661T414 654T443 643T469 628L455 514H417L428 605Q413 613 394 618T355 625L321 351Q349 341 373 327T416 295T446 253T457 203Q457 158 444 124T406 65T350 26T278
6L268 -74H235L334 725ZM202 -74H169L179 3Q145 7 110 18T46 52Q49 80 52 107T59 164H97L87 74Q113 60 137 54T184 45Q194 120 202 193T221 342Q195 352 175 364T139 392T116 430T108 482Q108 522 120 552T153 604T201 639T260 659L268 725H301L202 -74ZM283 46Q340
56 377 91T415 195Q415 241 388 267T316 310L283 46ZM150 484Q150 462 156 447T172 420T196 400T226 384Q233 443 240 501T255 620Q235 614 216 604T183 578T159 538T150 484Z" />
<glyph unicode="%" glyph-name="percent" horiz-adv-x="760" d="M207 669Q246 669 271 656T309 621T328 573T333 520Q333 484 327 439T302 355T250 289T163 262Q124 262 99 274T58 306T37 351T31 405Q31 420 33 445T41 499T58 559T89 613T137 653T207 669ZM208
631Q175 631 153 617T115 580T92 530T79 477T74 431T73 402Q73 358 93 329T167 300Q204 300 228 321T266 374T285 442T291 508Q291 529 288 551T276 591T251 620T208 631ZM249 -23H211L578 696H613L249 -23ZM639 403Q678 403 703 390T741 355T760 306T765 253Q765
217 759 173T734 89T682 23T595 -4Q556 -4 531 8T490 40T469 85T463 139Q463 153 465 178T473 233T490 293T521 347T569 387T639 403ZM640 365Q607 365 585 351T547 314T524 264T511 211T506 165T505 136Q505 92 525 63T599 34Q636 34 660 55T698 108T717 176T723
241Q723 263 720 285T708 325T683 354T640 365Z" />
<glyph unicode="&amp;" glyph-name="ampersand" horiz-adv-x="807" d="M366 294Q398 302 424 305T480 308Q512 308 547 304T624 291Q631 315 634 341T637 391Q637 438 625 481T584 558T509 612T393 632Q324 632 270 607T177 539T112 440T76 319L40 322Q49 388
75 450T145 561T252 639T400 669Q473 669 525 648T612 589T661 502T677 396Q677 369 673 339T662 283Q685 278 698 278Q742 278 767 295T812 344L844 334Q824 294 791 270T707 245Q701 245 686 246T652 252Q633 201 603 156T532 75T441 19T331 -5Q277 -5 240 11T180
55T147 116T137 185Q137 254 154 305T198 392T258 444T322 462Q345 462 361 454T388 434T404 407T409 376Q409 356 400 336T366 295V294ZM314 250L299 276Q331 299 352 325T373 376Q373 403 358 416T322 429Q298 429 272 415T224 372T188 298T173 190Q173 106 216
67T330 28Q372 28 415 45T496 93T565 166T614 259Q578 267 543 270T476 274Q438 274 401 268T322 248L314 250Z" />
<glyph unicode="&apos;" glyph-name="quotesingle" horiz-adv-x="156" d="M106 506L116 682H161L128 506H106Z" />
<glyph unicode="(" glyph-name="parenleft" horiz-adv-x="245" d="M140 -172Q135 -160 122 -134T95 -65T70 36T59 169Q59 286 83 378T140 539T204 651T250 713L265 703Q251 684 224 638T169 522T122 357T101 147Q101 84 108 34T124 -54T144 -117T161 -158L140 -172Z" />
<glyph unicode=")" glyph-name="parenright" horiz-adv-x="247" d="M-18 -158Q-5 -139 22 -95T78 20T128 185T150 402Q150 463 143 512T125 600T105 664T88 703L106 713Q113 700 127 673T155 605T181 508T192 383Q192 302 180 232T148 104T105 -2T60 -84T21 -141T-3
-172L-18 -158Z" />
<glyph unicode="*" glyph-name="asterisk" horiz-adv-x="356" d="M238 550L306 473Q286 442 251 433L216 537Q202 511 188 486T158 434Q141 438 130 446T111 473Q133 493 154 512T199 551L94 565Q96 587 102 601T123 630Q146 616 167 603T211 575L203 686Q212
689 222 691T240 693Q256 693 270 686L234 575L336 626Q346 617 349 608T353 588Q353 576 350 563L238 550Z" />
<glyph unicode="+" glyph-name="plus" horiz-adv-x="516" d="M287 276L267 109H226L246 276H87L92 318H251L271 477H313L293 318H450L444 276H287Z" />
<glyph unicode="," glyph-name="comma" horiz-adv-x="169" d="M66 67Q81 67 91 57T102 27Q102 11 95 -7T75 -42T45 -74T7 -98L-1 -84Q16 -68 28 -52T45 -10Q24 -3 24 22Q24 40 36 53T66 67Z" />
<glyph unicode="-" glyph-name="hyphen" horiz-adv-x="337" d="M51 237L57 284H298L292 237H51Z" />
<glyph unicode="." glyph-name="period" horiz-adv-x="167" d="M61 66Q77 66 85 57T94 33Q94 16 81 3T52 -10Q38 -10 29 0T20 24Q20 41 31 53T61 66Z" />
<glyph unicode="/" glyph-name="slash" horiz-adv-x="298" d="M14 -31H-18L321 704H352L14 -31Z" />
<glyph unicode="0" glyph-name="zero" horiz-adv-x="516" d="M304 673Q367 673 405 648T463 582T490 494T496 400Q496 359 492 314T476 223T446 136T399 63T333 12T244 -7Q186 -7 149 12T89 65T57 140T46 227Q46 252 48 294T59 386T84 487T129 579T200 647T304
673ZM307 634Q253 634 216 608T155 541T118 451T98 356T91 274T90 222Q91 181 99 146T125 85T174 45T250 30Q290 30 321 47T375 94T413 162T438 241T451 324T455 400Q455 439 449 480T427 556T382 612T307 634Z" />
<glyph unicode="1" glyph-name="one" horiz-adv-x="516" d="M128 575L125 606L299 662H341L264 40H396L392 0H74L79 40H221L291 602L128 575Z" />
<glyph unicode="2" glyph-name="two" horiz-adv-x="516" d="M8 0L12 37Q48 67 90 103T176 179T260 261T332 347T383 433T402 516Q402 576 365 603T269 630Q247 630 204 621T97 573L77 604Q109 627 139 640T194 661T240 671T276 674Q312 674 344 665T399 638T435
593T449 527Q449 481 430 434T380 342T308 254T226 173T144 101T71 41H371L383 143H425L408 0H8Z" />
<glyph unicode="3" glyph-name="three" horiz-adv-x="516" d="M185 -9Q119 -9 76 1T2 28L16 58Q47 47 71 41T116 33T152 30T183 29Q224 29 261 41T327 75T372 129T389 200Q389 234 376 261T340 307T287 336T220 346Q193 346 171 343L164 379Q233 397 277 416T346
455T382 496T392 539Q392 558 385 576T362 608T322 630T262 638Q229 638 189 629T95 595L80 624Q121 650 171 664T264 679Q310 679 343 668T397 639T428 597T438 548Q438 522 430 498T403 451T354 410T278 378Q308 375 336 362T385 326T420 274T434 208Q434 165
416 126T365 57T287 9T185 -9Z" />
<glyph unicode="4" glyph-name="four" horiz-adv-x="516" d="M446 662L394 231H487L482 190H388Q383 152 379 115T369 40H443L438 0H253L258 40H327Q332 78 336 115T346 190H28L34 235L400 662H446ZM352 231L397 597H390Q386 592 364 566T311 502T244 422T174
340T116 271T82 231H352Z" />
<glyph unicode="5" glyph-name="five" horiz-adv-x="516" d="M274 408Q306 408 337 399T394 369T435 315T451 234Q451 171 429 125T371 49T293 5T206 -9Q146 -9 104 0T23 28L39 65Q69 54 91 48T132 39T166 35T195 34Q240 34 278 45T345 81T390 143T406 231Q406
265 394 290T362 333T314 358T256 366Q227 366 196 359T135 336L104 366L142 662H471L455 533H416L426 618H181L149 385Q162 389 192 398T274 408Z" />
<glyph unicode="6" glyph-name="six" horiz-adv-x="516" d="M121 362Q146 377 189 394T294 411Q329 411 360 402T414 373T452 319T466 238Q466 183 450 138T403 61T332 12T241 -6Q187 -6 152 11T95 57T65 127T56 215Q56 312 76 396T133 541T223 638T342 673Q395
673 430 661T479 639Q474 631 470 622T461 604Q426 621 394 626T338 631Q300 631 270 617T216 579T175 526T145 467T126 411T116 366L121 362ZM288 367Q256 367 228 361T176 347T134 328T106 308Q101 284 101 259T100 216Q100 184 105 152T126 93T168 50T239 33Q284
33 317 49T373 92T407 155T418 233Q418 294 390 330T288 367Z" />
<glyph unicode="7" glyph-name="seven" horiz-adv-x="516" d="M147 0H99L447 618H164L151 514H109L128 662H499L494 621L147 0Z" />
<glyph unicode="8" glyph-name="eight" horiz-adv-x="516" d="M317 638Q271 638 241 622T192 583T167 538T160 501Q160 473 174 453T212 416T266 387T329 360Q400 406 425 448T451 526Q451 546 445 566T424 602T383 628T317 638ZM238 27Q286 27 321 42T378 80T410
131T421 185Q421 223 408 248T371 293T312 327T231 361Q189 340 161 315T114 263T89 209T81 157Q81 132 89 109T115 67T164 38T238 27ZM324 673Q355 673 385 665T439 640T476 596T491 532Q491 481 460 435T362 344Q412 318 436 280T461 187Q461 152 447 117T404
55T332 10T233 -7Q182 -7 145 6T85 40T51 91T40 152Q40 218 80 278T201 378Q121 425 121 499Q121 532 136 563T177 619T241 658T324 673Z" />
<glyph unicode="9" glyph-name="nine" horiz-adv-x="516" d="M414 305Q394 293 367 281T304 260Q290 258 274 256T240 254Q205 254 174 263T119 292T83 346T69 426Q69 481 86 526T135 604T208 655T302 673Q353 673 387 656T441 609T470 539T479 450Q479 353 459
270T402 125T311 30T191 -5Q139 -5 99 7T45 28Q50 36 53 45T62 63Q98 46 134 41T196 36Q234 36 265 51T319 89T360 142T389 201T407 257T417 301L414 305ZM247 298Q290 298 324 307T381 327T416 346T428 355Q431 386 432 406T434 452Q434 483 429 515T408 572T365
614T295 630Q250 630 217 615T160 572T126 509T114 429Q114 369 144 334T247 298Z" />
<glyph unicode=":" glyph-name="colon" horiz-adv-x="162" d="M66 70Q81 70 90 61T99 38Q99 20 88 7T58 -7Q43 -7 35 3T26 27Q26 44 37 57T66 70ZM107 394Q121 394 130 386T140 363Q140 346 128 332T98 318Q83 318 74 329T65 354Q65 371 78 382T107 394Z" />
<glyph unicode=";" glyph-name="semicolon" horiz-adv-x="162" d="M107 394Q121 394 130 386T140 363Q140 346 128 332T98 318Q83 318 74 329T65 354Q65 371 78 382T107 394ZM65 67Q80 67 90 57T101 27Q101 11 94 -7T74 -42T44 -74T7 -98L-2 -84Q16 -68 28 -52T45
-10Q23 -3 23 22Q23 40 35 53T65 67Z" />
<glyph unicode="&lt;" glyph-name="less" horiz-adv-x="516" d="M92 278L97 314L476 503L469 453L140 295Q138 296 159 284T213 254T285 214T356 174T410 143T430 132L425 87L92 278Z" />
<glyph unicode="=" glyph-name="equal" horiz-adv-x="516" d="M86 348L92 390H468L463 348H86ZM70 214L75 255H451L446 214H70Z" />
<glyph unicode="&gt;" glyph-name="greater" horiz-adv-x="516" d="M70 87L75 137L407 299Q409 298 388 309T333 339T261 378T189 417T134 447T114 458L120 503L452 314L447 278L70 87Z" />
<glyph unicode="?" glyph-name="question" horiz-adv-x="391" d="M258 700Q337 700 375 672T414 591Q414 562 405 538T380 494T343 457T299 423Q256 392 228 366T183 317T160 270T153 219Q153 207 153 194T154 163L119 154Q117 172 116 187T115 217Q115 247 121
274T144 327T190 381T267 443Q291 461 310 477T344 510T365 546T373 588Q370 628 340 644T263 660Q234 660 199 655T128 638L117 541H79L95 672Q136 686 179 693T258 700ZM143 68Q158 68 166 58T175 33Q175 15 162 3T134 -9Q120 -9 111 0T101 24Q101 42 113 55T143
68Z" />
<glyph unicode="@" glyph-name="at" horiz-adv-x="877" d="M472 572Q495 572 517 568T567 554L589 576L603 572L577 426Q570 388 563 348T556 276Q556 237 571 215T625 192Q644 192 672 204T725 244T769 316T788 425Q788 487 769 535T713 617T625 667T509 685Q425
685 353 655T227 574T144 453T113 305Q113 239 134 184T192 89T282 27T396 5Q416 5 448 8T515 22L523 -4Q512 -9 497 -12T464 -18T429 -22T395 -24Q323 -24 265 0T165 68T101 172T79 303Q79 390 113 465T205 596T341 684T506 716Q580 716 638 696T738 638T800 547T822
429Q822 360 803 310T753 227T686 179T616 163Q588 163 570 172T542 196T528 229T524 267Q524 276 525 285T527 302H524Q512 273 499 251T472 212Q446 183 420 172T370 160Q328 160 301 194T273 300Q273 355 285 404T323 490T385 550T472 572ZM379 194Q397 194
417 204T458 239T499 303T540 404Q545 433 550 462T561 520Q532 532 508 536T467 540Q420 540 390 516T343 455T318 378T311 304Q311 248 330 221T379 194Z" />
<glyph unicode="A" glyph-name="A" horiz-adv-x="602" d="M388 0L392 39H462L436 189H163L100 39H173L169 0H-6L-2 39H55Q125 202 193 360T333 683H386L509 39H562L558 0H388ZM368 566L355 637H353Q352 635 352 633T348 623T340 603T324 565Q315 544 302 515T272
445T233 352T183 232H428L368 566Z" />
<glyph unicode="B" glyph-name="B" horiz-adv-x="555" d="M417 356Q445 348 464 333T495 297T512 254T517 206Q517 153 499 115T451 51T386 13T316 0H13Q15 10 15 19T17 39H83Q101 191 120 341T158 643H96Q98 653 98 662T100 682H364Q452 682 492 640T533 533Q533
482 508 435T417 356ZM161 334Q152 259 144 187T125 39H304Q348 39 380 52T433 88T464 141T474 208Q474 233 466 256T442 296T400 324T340 334H161ZM200 643Q191 576 183 509T167 375H325Q405 375 449 418T493 529Q493 554 486 575T462 611T420 634T358 643H200Z"
/>
<glyph unicode="C" glyph-name="C" horiz-adv-x="518" d="M481 23Q465 17 444 12T398 2T350 -4T304 -7Q180 -7 121 61T61 262Q61 297 65 343T82 436T117 530T174 612T260 670T378 692Q434 692 473 684T536 665L520 528H481L494 636Q472 644 440 648T375 653Q309
653 258 624T173 543T122 418T104 258Q104 211 114 170T149 99T213 50T312 32Q341 32 384 37T472 57L481 23Z" />
<glyph unicode="D" glyph-name="D" horiz-adv-x="600" d="M340 682Q406 682 450 661T522 604T560 518T572 411Q572 329 556 255T502 124T406 34T261 0H14L18 39H83L158 643H96L100 682H340ZM202 643L128 40H250Q263 40 289 41T346 52T409 83T468 145T512 247T529
400Q529 461 518 503T490 572T451 613T407 634T364 642T329 643H202Z" />
<glyph unicode="E" glyph-name="E" horiz-adv-x="508" d="M18 39H81L156 643H97L101 681H520L506 557H467L478 643H198L165 379L446 386L441 338L161 342L124 39H425L435 125H477L462 0H14L18 39Z" />
<glyph unicode="F" glyph-name="F" horiz-adv-x="481" d="M214 0H14L18 39H81L156 643H97L101 681H515L500 557H462L473 643H198L165 379L441 386L436 338L161 342L124 39H218L214 0Z" />
<glyph unicode="G" glyph-name="G" horiz-adv-x="576" d="M394 692Q448 692 487 684T549 665L533 528H495L508 636Q486 643 454 648T389 653Q319 653 266 624T176 542T122 420T104 268Q104 219 113 177T146 103T209 53T309 34Q338 34 373 38T435 52L467 307H364L368
346H564L560 307H509L473 21Q427 7 385 0T297 -7Q175 -7 118 64T61 261Q61 299 66 345T86 440T124 533T185 614T273 670T394 692Z" />
<glyph unicode="H" glyph-name="H" horiz-adv-x="626" d="M398 0L402 40H462L499 340H158L120 40H181L177 0H14L18 40H77L151 643H92L97 682H260L256 643H195L163 382H505L537 643H477L481 682H645L641 643H581L506 40H567L562 0H398Z" />
<glyph unicode="I" glyph-name="I" horiz-adv-x="297" d="M43 0L47 39H105L180 643H122L126 682H287L283 643H222L148 39H208L204 0H43Z" />
<glyph unicode="J" glyph-name="J" horiz-adv-x="294" d="M84 643L88 682H322L318 643H228L161 116Q154 56 139 11T98 -69T33 -129T-59 -173L-71 -141Q-22 -120 11 -97T66 -46T99 18T117 99L185 643H84Z" />
<glyph unicode="K" glyph-name="K" horiz-adv-x="574" d="M285 413L493 39H552L548 0H380L383 39H446L254 385L153 294L121 38H184L180 0H14L18 38H78L153 645H93L97 683H261L257 645H196L159 349L487 645H420L424 683H599L595 645H543L285 413Z" />
<glyph unicode="L" glyph-name="L" horiz-adv-x="489" d="M269 643H198L123 39H418L433 157H475L456 0H14L18 39H81L156 643H97L101 681H273L269 643Z" />
<glyph unicode="M" glyph-name="M" horiz-adv-x="780" d="M379 111Q398 145 416 179T453 248Q457 256 469 277T496 326T529 384T561 443T588 492T604 521L692 682H798Q797 672 797 663T794 643H735Q716 491 697 341T660 38H720Q718 29 718 19T716 0H551Q553 9
553 19T555 38H618Q635 178 652 315T686 592H685L621 473Q592 421 564 370T506 266L392 61H348L293 238L218 481L185 592H183Q166 452 150 315T117 38H180Q178 29 178 19T176 0H13Q15 9 15 19T17 38H75L150 643H92Q94 653 94 662T96 682H198Q211 641 223 602T248
522L373 111H379Z" />
<glyph unicode="N" glyph-name="N" horiz-adv-x="661" d="M503 88L572 643H503L507 682H680L676 643H613Q593 482 574 322T534 0H496L363 266L254 484L195 605Q194 605 194 605T192 604L124 39H192L188 0H13L17 39H82L157 643H92L96 682H206Q235 625 262 570T318
457Q324 444 339 415T372 348T410 269T449 191T480 126T498 88H503Z" />
<glyph unicode="O" glyph-name="O" horiz-adv-x="616" d="M367 692Q433 692 475 670T542 611T577 525T587 421Q587 333 569 256T513 120T421 27T293 -7Q229 -7 185 10T113 61T73 142T60 250Q60 328 76 406T128 548T223 652T367 692ZM369 653Q292 653 241 616T158
519T114 389T101 249Q101 140 146 86T292 32Q360 32 408 65T486 152T531 277T545 420Q545 464 538 506T512 580T458 633T369 653Z" />
<glyph unicode="P" glyph-name="P" horiz-adv-x="513" d="M14 0L18 39H78L153 643H92L97 682H350Q385 682 416 673T470 643T506 590T520 514Q520 481 510 443T476 370T412 314T309 291H152L120 39H202L198 0H14ZM313 331Q339 331 367 339T420 368T460 423T476
511Q476 578 442 610T352 643H195L157 331H313Z" />
<glyph unicode="Q" glyph-name="Q" horiz-adv-x="614" d="M367 692Q433 692 475 670T542 611T577 525T587 421Q587 350 575 285T537 166T476 73T390 12L535 -26L509 -76L299 -7Q234 -8 189 9T115 60T73 141T60 250Q60 328 76 406T128 548T223 652T367 692ZM369
653Q292 653 241 616T158 519T114 389T101 249Q101 140 146 86T292 32Q360 32 408 65T486 152T531 277T545 420Q545 464 538 506T512 580T458 633T369 653Z" />
<glyph unicode="R" glyph-name="R" horiz-adv-x="552" d="M13 0L17 39H78L153 643H92L96 682H348Q384 682 415 674T469 646T505 596T519 520Q519 488 511 456T485 396T437 346T364 316L450 40L521 31L522 5Q508 0 486 -3T451 -6Q428 -6 422 5T409 34L321 311H154L121
39H204L200 0H13ZM318 351Q345 351 373 358T424 383T462 433T477 515Q477 585 442 614T351 643H195L159 351H318Z" />
<glyph unicode="S" glyph-name="S" horiz-adv-x="483" d="M66 163L54 70Q89 51 128 43T205 35Q249 35 287 44T352 74T396 124T412 196Q412 229 401 251T371 287T326 311T270 330Q232 340 198 352T138 382T97 427T82 497Q82 546 100 582T148 643T215 680T292 692Q329
692 376 685T461 654L445 534H406L419 631Q384 644 355 648T292 652Q259 652 229 643T175 616T137 568T123 500Q123 471 135 451T168 417T213 394T263 376Q296 365 329 355T390 327T435 279T453 200Q453 143 431 104T373 40T293 5T203 -6Q151 -6 102 5T13 46L27
163H66Z" />
<glyph unicode="T" glyph-name="T" horiz-adv-x="486" d="M514 546H474L485 643H318L244 39H326L322 0H119L123 39H202L277 643H107L95 546H57L73 682H529L514 546Z" />
<glyph unicode="U" glyph-name="U" horiz-adv-x="651" d="M501 643L505 682H679L675 643H614L564 242Q557 187 539 141T489 62T412 11T307 -7Q242 -7 198 11T128 62T94 142T93 247L142 643H82L87 682H261L257 643H186L136 244Q123 139 163 86T302 33Q398 33 454
86T522 244L572 643H501Z" />
<glyph unicode="V" glyph-name="V" horiz-adv-x="569" d="M273 57L324 185L516 644H455L459 682H622L618 644H558L285 0H239L123 644H63L68 682H232L228 644H165L248 182L269 57H273Z" />
<glyph unicode="W" glyph-name="W" horiz-adv-x="831" d="M710 644L714 682H885L881 644H821L591 0H547L477 432L462 533H460L419 427L244 0H198L123 644H64L68 682H241L237 644H164L217 155L227 63H229L266 158L448 611L444 644H373L377 682H560L556 644H483L565
144L576 61H578L611 156L780 644H710Z" />
<glyph unicode="X" glyph-name="X" horiz-adv-x="571" d="M145 644H89L93 682H263L259 644H189L306 391L486 644H415L419 682H601L597 644H538L327 352L472 40H533L529 0H348L352 40H430L301 316L108 40H188L184 0H-6L-2 40H58L281 355L145 644Z" />
<glyph unicode="Y" glyph-name="Y" horiz-adv-x="517" d="M275 354L465 644H399L403 682H565L561 644H510L292 316L258 39H337L333 0H131L135 39H216L249 313L116 644H63L68 682H225L221 644H157L271 354H275Z" />
<glyph unicode="Z" glyph-name="Z" horiz-adv-x="465" d="M-7 0L-3 39L436 643H134L123 546H84L100 682H487L483 643L45 40H384L398 145H439L421 0H-7Z" />
<glyph unicode="[" glyph-name="bracketleft" horiz-adv-x="217" d="M2 -160L107 695H242Q241 686 241 677T238 659H143Q118 463 95 268T46 -123H142L137 -160H2Z" />
<glyph unicode="\" glyph-name="backslash" horiz-adv-x="298" d="M68 720H99L270 -49H238L68 720Z" />
<glyph unicode="]" glyph-name="bracketright" horiz-adv-x="217" d="M-17 -160L-12 -126H82L178 659H83L87 695H224L119 -160H-17Z" />
<glyph unicode="^" glyph-name="asciicircum" horiz-adv-x="401" d="M362 398L254 646L84 398H45L242 683H276L400 398H362Z" />
<glyph unicode="_" glyph-name="underscore" horiz-adv-x="485" d="M-40 -123L-36 -92H448L444 -123H-40Z" />
<glyph unicode="`" glyph-name="grave" horiz-adv-x="446" d="M278 535L175 672L224 707L307 552L278 535Z" />
<glyph unicode="a" glyph-name="a" horiz-adv-x="503" d="M279 492Q306 492 334 486T395 468L421 494L436 492Q427 434 418 371T400 248T386 135T376 42Q397 44 422 54T469 78Q473 74 475 70T481 62Q468 48 453 35T422 12T394 -3T370 -9Q353 -9 345 -2T333 17T331
42T334 70Q336 91 340 117T349 164H345Q324 113 300 80T252 27T203 1T158 -7Q106 -7 73 34T40 162Q40 228 55 288T100 393T174 465T279 492ZM167 32Q188 32 212 44T262 86T313 165T363 287Q368 322 374 357T386 428Q351 442 322 447T273 453Q217 453 181 424T123
351T93 257T84 167Q84 98 106 65T167 32Z" />
<glyph unicode="b" glyph-name="b" horiz-adv-x="461" d="M302 495Q354 495 387 454T421 325Q421 259 406 199T361 94T287 23T183 -4Q148 -4 114 4T36 32L33 38Q44 117 54 194T74 349T93 505T111 668L9 683L11 705Q40 712 70 716T126 720Q141 720 148 712T155
693Q155 688 153 663T147 603T139 526T129 445T119 372T111 322H115Q136 374 160 407T208 460T257 487T302 495ZM294 456Q273 456 249 444T199 402T147 323T97 201L77 59Q111 45 139 40T188 35Q244 35 280 64T338 137T368 230T377 321Q377 390 355 423T294 456Z"
/>
<glyph unicode="c" glyph-name="c" horiz-adv-x="418" d="M198 31Q234 31 272 39T344 65L358 38Q328 21 286 8T198 -6Q155 -6 125 7T76 43T49 99T40 172Q40 197 43 231T56 301T83 372T127 434T192 479T282 496Q314 496 340 490T380 478Q393 473 399 466T403 443Q403
439 400 428T393 402T383 371T372 342L350 343L357 445Q340 451 318 454T273 458Q225 458 189 435T129 371T93 279T80 169Q80 140 85 115T104 71T141 42T198 31Z" />
<glyph unicode="d" glyph-name="d" horiz-adv-x="506" d="M279 492Q303 492 331 486T389 471L411 667L309 682Q309 687 309 693T311 705Q372 719 426 719Q458 719 458 692Q458 684 456 665T450 626L379 42Q401 44 425 53T472 77L485 62Q472 48 457 35T426 13T398
-3T374 -9Q351 -9 341 2T334 44Q336 67 341 100T351 164H347Q326 113 302 80T253 27T204 1T158 -7Q106 -7 73 34T40 162Q40 228 55 288T100 393T174 465T279 492ZM167 32Q188 32 213 44T264 86T316 165T366 287L385 428Q351 442 322 447T273 453Q217 453 181 424T123
351T93 257T84 167Q84 98 106 65T167 32Z" />
<glyph unicode="e" glyph-name="e" horiz-adv-x="431" d="M194 -6Q148 -6 118 9T71 49T47 109T40 181Q40 211 44 246T59 317T88 384T132 442T196 482T282 497Q315 497 338 487T375 461T395 425T401 384Q401 332 374 299T303 245T201 215T83 201Q82 195 82 188T82
173Q82 149 86 124T104 79T140 45T200 31Q238 31 274 40T348 68L361 40Q335 23 290 9T194 -6ZM87 242Q218 249 287 281T357 379Q357 414 339 436T277 458Q195 458 147 400T87 242Z" />
<glyph unicode="f" glyph-name="f" horiz-adv-x="284" d="M281 730Q297 730 318 727T359 719L350 683Q333 688 314 689T282 691Q255 691 234 683T197 652T172 590T157 488H291L287 456H151Q141 372 131 289T110 122Q103 64 95 5T70 -102T20 -180T-68 -211Q-85
-211 -105 -208T-147 -199Q-144 -191 -142 -184T-137 -169Q-115 -174 -100 -175T-71 -176Q-18 -176 12 -131T55 10Q67 97 77 178T94 321T106 420T110 456H31L33 476Q53 480 73 484T113 493L116 513Q121 560 131 600T161 669T209 714T281 730Z" />
<glyph unicode="g" glyph-name="g" horiz-adv-x="468" d="M277 492Q312 492 346 484T424 455L427 449Q414 346 402 247T374 45Q370 18 366 -12T355 -71T334 -126T297 -173T238 -205T153 -217Q113 -217 78 -207T23 -186L39 -151Q65 -164 96 -171T158 -178Q213 -178
245 -160T295 -112T321 -42T334 41L351 166Q348 166 347 165Q326 113 302 80T253 27T204 0T158 -8Q106 -8 73 33T39 161Q39 227 54 287T99 392T173 465T277 492ZM166 31Q187 31 211 43T261 85T312 164T362 285Q368 321 373 357T383 428Q349 442 321 447T272 453Q216
453 180 423T122 350T93 256T84 166Q84 97 106 64T166 31Z" />
<glyph unicode="h" glyph-name="h" horiz-adv-x="525" d="M347 495Q397 495 416 467T435 398Q435 388 434 370T429 312T418 209T399 42Q421 44 441 50T485 70L498 56Q438 -9 393 -9Q357 -9 357 31Q357 37 357 43T359 58Q371 164 378 226T388 323T392 371T393 392Q393
419 382 438T345 457Q323 457 297 444T242 400T187 320T137 200L109 0H67Q72 38 79 93T94 213T109 345T124 474T137 586T146 667L46 682L49 704Q78 711 107 715T164 719Q178 719 185 715T193 700Q193 693 191 666T184 602T175 523T165 441T156 370T150 323H154Q176
373 203 406T256 459T307 487T347 495Z" />
<glyph unicode="i" glyph-name="i" horiz-adv-x="249" d="M148 496Q164 496 171 492T178 476Q178 477 174 445T164 364T151 258T138 152T128 72T124 42Q145 44 166 50T211 70L224 56Q165 -9 119 -9Q98 -9 91 3T83 32Q83 38 83 44T85 58L133 444L44 459L45 482Q74
488 101 492T148 496ZM168 636Q180 636 188 628T197 607Q197 593 187 582T162 570Q151 570 142 578T133 598Q133 613 143 624T168 636Z" />
<glyph unicode="j" glyph-name="j" horiz-adv-x="236" d="M149 496Q179 496 178 473Q177 464 175 439T168 378T160 302T150 222T141 147T134 87Q128 33 117 -16T87 -104T36 -172T-44 -215L-52 -190Q-12 -172 13 -145T55 -83T78 -11T90 67Q101 165 112 257T132
444L42 459L43 481Q72 488 100 492T149 496ZM163 636Q175 636 184 628T193 607Q193 593 183 581T157 569Q146 569 138 577T129 598Q129 612 139 624T163 636Z" />
<glyph unicode="k" glyph-name="k" horiz-adv-x="418" d="M354 497Q381 497 396 483T412 446Q406 441 401 437T389 428Q365 446 337 446Q311 446 289 435T248 406T211 366T175 320Q187 294 202 265T232 206T263 148T292 97T316 59T331 39Q360 45 379 59T413 84L426
70Q395 23 370 7T329 -9Q301 -9 259 64T145 280Q133 263 125 251T111 228T98 205T85 176L62 0H18Q31 85 42 166T63 329T84 495T106 669L18 680Q19 685 19 691T19 702Q42 708 73 715T130 722Q156 722 152 695Q150 685 147 660T139 600T129 523T117 437T105 348T94
264H97Q119 304 149 345T214 421T284 476T354 497Z" />
<glyph unicode="l" glyph-name="l" horiz-adv-x="245" d="M164 720Q194 720 194 700Q194 691 190 650T178 548T161 415T144 272T127 141T115 42Q136 44 157 50T201 70L214 56Q155 -9 109 -9Q90 -9 82 0T73 31Q73 37 73 43T75 58L148 668L48 683L50 705Q79 712
111 716T164 720Z" />
<glyph unicode="m" glyph-name="m" horiz-adv-x="767" d="M418 317Q437 364 461 398T509 454T556 486T595 497Q646 497 664 470T683 401Q683 391 682 372T677 314T666 211T648 44Q669 46 690 52T734 72L747 58Q717 26 691 10T642 -7Q605 -7 605 34Q605 40 605
46T607 60Q616 136 622 189T632 279T637 336T640 369T641 386T641 397Q641 423 630 441T592 459Q571 459 548 445T500 400T452 321T404 202Q402 189 401 178T397 148T391 94T380 0H338Q338 -2 340 15T344 53T348 91T350 108Q361 203 367 257T375 339T378 378T378
395Q378 421 367 439T330 457Q309 457 286 444T238 400T190 321T143 201L115 0H73Q81 57 88 118T103 238T117 350T128 444L27 459L30 482Q59 488 89 492T146 496Q160 496 168 492T177 477Q177 454 171 415T157 325H161Q183 374 206 407T252 459T295 487T332 495Q358
495 375 488T403 467T417 435T421 394Q421 385 420 368T416 319L418 317Z" />
<glyph unicode="n" glyph-name="n" horiz-adv-x="525" d="M352 495Q403 495 422 468T441 399Q441 388 440 369T435 312T424 210T405 42Q426 44 447 50T491 69L504 56Q477 24 451 8T403 -9Q362 -9 362 31Q362 37 362 43T364 58Q376 161 383 223T393 319T397 368T398
389Q398 418 388 437T350 456Q329 456 302 443T248 399T193 321T142 201Q136 150 129 101T115 0H72Q80 57 88 118T103 237T117 349T128 444L28 459Q29 464 29 470T29 481Q58 488 88 492T146 496Q163 496 170 491T177 472Q175 451 170 412T157 324H161Q183 373 209
406T262 458T312 486T352 495Z" />
<glyph unicode="o" glyph-name="o" horiz-adv-x="455" d="M265 457Q227 457 199 443T150 404T116 349T95 286T84 222T81 165Q81 139 86 115T106 72T145 42T206 31Q243 31 270 45T317 82T350 134T370 194T380 252T383 303Q383 333 378 360T360 409T323 444T265
457ZM265 496Q311 496 341 480T390 438T417 377T425 305Q425 260 416 206T382 105T313 25T199 -7Q152 -7 122 7T73 47T48 105T40 176Q40 227 51 283T88 387T158 465T265 496Z" />
<glyph unicode="p" glyph-name="p" horiz-adv-x="492" d="M-42 -207Q-40 -197 -40 -188T-38 -169H39Q58 -15 75 136T111 444L11 459Q12 464 12 470T12 481Q43 488 72 492T128 496Q160 496 160 473Q160 459 156 423T140 320H144Q165 371 189 404T237 457T286 483T332
491Q385 491 418 450T451 321Q451 255 436 195T391 90T316 19T211 -8Q187 -8 159 -3T102 11Q96 -34 90 -79T79 -169H175Q173 -179 173 -188T171 -207H-42ZM324 452Q303 452 278 440T227 397T175 318T124 197L105 54Q139 40 168 35T218 30Q274 30 310 59T368 133T398
226T407 317Q407 386 385 419T324 452Z" />
<glyph unicode="q" glyph-name="q" horiz-adv-x="475" d="M215 -169H307Q322 -29 332 53T349 166Q346 166 345 165Q324 113 300 80T252 28T203 1T158 -7Q106 -7 73 34T40 162Q40 228 55 288T99 393T172 465T274 492Q307 492 343 484T424 455Q426 451 426 449Q407
294 389 140T350 -169H429Q427 -179 427 -188T425 -207H210L215 -169ZM167 32Q188 32 212 44T262 86T313 165T363 286L383 428Q349 442 321 447T272 453Q216 453 180 424T122 351T93 257T84 167Q84 98 106 65T167 32Z" />
<glyph unicode="r" glyph-name="r" horiz-adv-x="379" d="M145 496Q161 496 169 492T177 474Q177 455 172 421T159 339H162Q181 390 201 421T242 469T281 491T317 497Q346 497 358 484T371 451L356 438Q340 446 328 447T305 449Q260 449 219 391T142 207L114 0H75Q88
109 102 219T130 444L41 459L43 481Q72 488 95 492T145 496Z" />
<glyph unicode="s" glyph-name="s" horiz-adv-x="382" d="M152 -6Q111 -6 87 -1T49 12T31 30T27 51Q27 72 37 103T58 160L77 159L70 47Q107 33 153 33Q180 33 206 38T254 56T287 88T300 135Q300 156 292 170T269 195T236 214T199 232Q167 247 141 261T95 291T66
325T55 367Q55 402 70 426T109 466T162 489T220 496Q270 496 303 481T337 443Q337 433 335 419T328 390T318 358T306 329L287 330L294 438Q280 446 261 451T217 456Q195 456 174 452T136 437T109 409T98 366Q98 349 108 336T133 312T165 293T197 277Q223 265 248
253T293 224T325 186T337 137Q337 100 321 73T278 29T218 3T152 -6Z" />
<glyph unicode="t" glyph-name="t" horiz-adv-x="322" d="M178 601L164 486H308L305 454H162Q161 446 157 418T148 351T138 271T127 191T119 126T116 92Q116 66 128 51T173 35Q190 35 214 38T268 51L279 23Q256 12 227 5T169 -3Q109 -3 89 27T75 120L120 454H50L52
475L124 492L155 594L178 601Z" />
<glyph unicode="u" glyph-name="u" horiz-adv-x="525" d="M460 487Q445 378 432 271T405 42Q449 45 490 69Q497 63 503 56Q475 24 449 8T402 -9Q379 -9 369 2T359 37Q360 47 362 63T366 98T372 133T377 164H373Q351 114 325 81T272 29T222 1T185 -7Q132 -7 113
19T93 90Q93 99 94 116T98 171T109 274T128 444L27 459L29 481Q58 488 87 492T143 496Q159 496 166 492T174 475Q174 463 171 434T164 367T155 285T145 203T138 134T135 91Q135 30 183 30Q204 30 231 43T285 87T340 165T391 285L420 487H460Z" />
<glyph unicode="v" glyph-name="v" horiz-adv-x="444" d="M99 499Q118 499 125 490T134 453Q135 446 137 416T144 343T153 253T162 163T170 89T174 49H178Q215 91 250 140T313 242T358 347T375 446Q356 441 338 436T300 424Q298 428 296 432T292 441Q319 471 343
485T382 499Q399 499 406 489T414 451Q414 391 391 326T332 198T255 84T178 -3H145Q131 109 118 222T90 448L18 426Q16 430 14 434T10 443Q35 470 59 484T99 499Z" />
<glyph unicode="w" glyph-name="w" horiz-adv-x="647" d="M336 246Q335 246 335 246T334 247Q316 208 293 170T246 99T200 40T162 -3H130Q120 109 110 222T89 448L18 424Q16 428 14 432T10 441Q33 466 54 482T95 500Q113 500 122 491T133 453Q134 441 136 411T141
340T147 256T154 172T159 101T162 58H166Q188 85 212 119T258 190T298 264T330 335Q328 364 326 391T321 448Q302 441 284 436T246 424Q244 428 242 432T237 440Q263 469 289 484T330 499Q346 499 354 490T365 454L391 56H395Q432 98 465 146T522 246T562 348T577
446L500 422L491 438Q519 468 544 483T584 499Q601 499 609 489T617 449Q617 392 595 327T539 200T466 84T392 -3H357L336 246V246Z" />
<glyph unicode="x" glyph-name="x" horiz-adv-x="419" d="M51 -10L18 10V15L186 238Q166 292 145 343T103 448Q83 440 65 433T26 419L17 438Q43 464 66 478T104 493Q123 493 132 482T152 445Q167 404 182 365T214 285Q247 336 279 387T345 489H351L388 466V461Q346
409 307 356T227 251L311 39Q334 41 356 49T401 70L410 56Q384 25 360 8T316 -10Q293 -10 285 2T268 32Q266 37 256 62T235 117T213 171T200 201Q165 148 129 97T58 -9L51 -10Z" />
<glyph unicode="y" glyph-name="y" horiz-adv-x="458" d="M97 495Q114 495 123 486T137 450Q148 400 159 341T181 221T201 101T219 -11Q252 33 281 95T333 221T369 344T383 443L306 420L298 437Q353 495 384 495Q401 495 412 487T423 453Q423 396 406 323T357
174T282 26T188 -104T78 -195T-40 -230Q-75 -230 -95 -215T-116 -176Q-116 -174 -116 -172T-115 -168L-94 -154Q-76 -168 -58 -174T-22 -180Q26 -180 75 -150T186 -51Q177 5 165 76T141 217T116 347T95 444L21 422L13 439Q66 495 97 495Z" />
<glyph unicode="z" glyph-name="z" horiz-adv-x="419" d="M16 0L7 34L349 448H118L78 339L56 341L68 456Q70 477 82 482T106 487H384L397 447L59 38H329L365 144L385 143L373 31Q371 10 360 5T337 0H16Z" />
<glyph unicode="{" glyph-name="braceleft" horiz-adv-x="217" d="M119 -171Q96 -171 83 -162T63 -139T55 -108T56 -75L87 172Q89 191 90 209T87 242T72 268T39 283L43 315Q66 319 79 330T101 357T112 390T118 427L140 607Q142 623 147 639T163 670T188 693T226
702H255L249 666H228Q205 666 192 648T175 600L154 423Q152 404 148 385T135 348T115 319T85 300Q102 289 111 277T124 249T128 216T124 176L94 -70Q90 -98 95 -116T127 -135H152L148 -171H119Z" />
<glyph unicode="|" glyph-name="bar" horiz-adv-x="190" d="M94 -134V695H127V-134H94Z" />
<glyph unicode="}" glyph-name="braceright" horiz-adv-x="217" d="M115 703Q138 703 151 694T171 671T179 640T178 607L153 424Q151 405 150 387T153 354T168 328T201 313L197 281Q174 276 161 265T139 239T128 206T122 169L94 -75Q92 -91 87 -107T71 -138T46
-161T8 -170H-21L-15 -134H6Q29 -134 42 -116T59 -68L86 173Q88 192 92 211T105 248T125 277T155 296Q138 307 129 319T116 347T112 380T116 420L140 602Q144 630 139 648T107 667H82L86 703H115Z" />
<glyph unicode="~" glyph-name="asciitilde" horiz-adv-x="516" d="M195 350Q216 350 240 343T290 326T337 309T377 301L450 349L470 330Q453 301 424 280T360 259Q333 259 310 266T265 282T224 298T185 306L107 259L87 280Q104 308 132 329T195 350Z" />
</font>
</defs>
</svg>
